<?xml version="1.0" encoding="UTF-8"?>
<svg id="Layer_1" data-name="Layer 1" xmlns="http://www.w3.org/2000/svg" viewBox="0 0 975.55 146.53">
  <defs>
    <style>
      .cls-1 {
        fill: #a6206e;
      }

      .cls-2 {
        fill: #064054;
      }

      .cls-3 {
        fill: #2e80c3;
      }

      .cls-4 {
        fill: #ec1260;
      }

      .cls-5 {
        fill: #231f20;
      }

      .cls-6 {
        fill: #f9a31a;
      }
    </style>
  </defs>
  <g>
    <path class="cls-2" d="m200.71,107.17c2.07.68,3.75,1.93,5.03,3.75,1.03,1.47,1.73,3.06,2.11,4.77.37,1.71.56,3.34.56,4.89,0,3.93-.79,7.25-2.37,9.98-2.14,3.67-5.44,5.51-9.91,5.51h-12.74v-29.54h12.74c1.83.03,3.36.24,4.57.64Zm-11.32,4.49v19.28h5.7c2.92,0,4.95-1.44,6.1-4.31.63-1.58.94-3.45.94-5.63,0-3.01-.47-5.31-1.42-6.92-.94-1.61-2.82-2.41-5.63-2.41h-5.7Z"/>
    <path class="cls-2" d="m229.85,113.71c.07,0,.24.02.49.03v5.85c-.36-.04-.68-.07-.96-.08-.28-.01-.51-.02-.68-.02-2.3,0-3.84.75-4.63,2.24-.44.84-.66,2.14-.66,3.89v10.44h-5.75v-21.84h5.45v3.81c.88-1.46,1.65-2.45,2.3-2.99,1.07-.9,2.46-1.34,4.17-1.34.11,0,.2,0,.27.01Z"/>
    <path class="cls-2" d="m244.69,111.62h-5.79v-5.27h5.79v5.27Zm-5.79,2.6h5.79v21.84h-5.79v-21.84Z"/>
    <path class="cls-2" d="m268.81,114.22h6.13l-7.89,21.84h-6.02l-7.83-21.84h6.41l4.55,16.11,4.65-16.11Z"/>
    <path class="cls-2" d="m289.18,111.62h-5.79v-5.27h5.79v5.27Zm-5.79,2.6h5.79v21.84h-5.79v-21.84Z"/>
    <path class="cls-2" d="m317.45,115.47c1.43,1.18,2.15,3.14,2.15,5.88v14.71h-5.85v-13.29c0-1.15-.15-2.03-.46-2.65-.56-1.12-1.62-1.68-3.18-1.68-1.92,0-3.24.82-3.96,2.46-.37.87-.56,1.98-.56,3.33v11.82h-5.71v-21.8h5.53v3.19c.73-1.12,1.42-1.93,2.08-2.42,1.17-.88,2.65-1.32,4.45-1.32,2.25,0,4.09.59,5.52,1.77Z"/>
    <path class="cls-2" d="m340.84,114.2c1.39.57,2.51,1.63,3.36,3.17v-3.15h5.57v20.72c0,2.82-.47,4.94-1.42,6.37-1.63,2.46-4.76,3.69-9.38,3.69-2.79,0-5.07-.55-6.83-1.64-1.76-1.1-2.74-2.73-2.93-4.91h6.21c.16.67.42,1.15.78,1.44.61.52,1.65.78,3.11.78,2.06,0,3.43-.69,4.13-2.06.45-.88.68-2.36.68-4.45v-1.4c-.55.94-1.14,1.64-1.76,2.1-1.14.87-2.61,1.3-4.43,1.3-2.81,0-5.05-.98-6.72-2.96-1.68-1.97-2.52-4.64-2.52-8.01s.81-5.98,2.42-8.19,3.9-3.32,6.87-3.32c1.09,0,2.05.17,2.86.5Zm1.95,15.66c.92-1.01,1.38-2.62,1.38-4.82,0-2.07-.44-3.65-1.31-4.73-.87-1.08-2.04-1.62-3.5-1.62-2,0-3.37.94-4.13,2.83-.4,1-.6,2.24-.6,3.71,0,1.27.21,2.4.64,3.39.77,1.84,2.16,2.77,4.15,2.77,1.33,0,2.45-.5,3.37-1.51Z"/>
    <path class="cls-2" d="m398.76,111.76h-15.31v6.27h14.03v5.13h-14.03v7.6h16.03v5.31h-22.06v-29.54h21.34v5.23Z"/>
    <path class="cls-2" d="m407.1,136.06l7.45-11.06-7.13-10.74h6.99l3.65,6.33,3.57-6.33h6.79l-7.17,10.64,7.46,11.16h-7.11l-3.76-6.57-3.8,6.57h-6.93Z"/>
    <path class="cls-2" d="m450.3,122.06c-.11-.81-.38-1.55-.82-2.2-.64-.88-1.64-1.32-2.99-1.32-1.93,0-3.25.96-3.96,2.87-.38,1.01-.56,2.36-.56,4.04s.19,2.89.56,3.86c.68,1.82,1.97,2.73,3.86,2.73,1.34,0,2.29-.36,2.85-1.08.56-.72.9-1.66,1.02-2.81h5.83c-.13,1.74-.76,3.38-1.89,4.93-1.79,2.5-4.45,3.75-7.96,3.75s-6.1-1.04-7.76-3.13c-1.66-2.08-2.49-4.79-2.49-8.11,0-3.75.92-6.66,2.75-8.75,1.83-2.08,4.36-3.13,7.58-3.13,2.74,0,4.98.61,6.73,1.84,1.74,1.23,2.78,3.4,3.1,6.51h-5.85Z"/>
    <path class="cls-2" d="m479.42,114.66c1.52.68,2.78,1.76,3.77,3.23.89,1.3,1.47,2.8,1.74,4.52.15,1,.22,2.45.19,4.33h-15.91c.09,2.19.85,3.73,2.28,4.61.87.55,1.92.82,3.15.82,1.3,0,2.36-.33,3.17-1,.44-.36.84-.86,1.18-1.5h5.83c-.15,1.3-.86,2.61-2.12,3.95-1.96,2.12-4.7,3.19-8.22,3.19-2.91,0-5.47-.9-7.69-2.69-2.22-1.79-3.33-4.71-3.33-8.75,0-3.78,1-6.69,3.01-8.7,2.01-2.02,4.61-3.03,7.81-3.03,1.9,0,3.61.34,5.14,1.02Zm-8.54,4.93c-.81.83-1.31,1.96-1.52,3.38h9.84c-.1-1.52-.61-2.67-1.52-3.45-.91-.79-2.04-1.18-3.39-1.18-1.47,0-2.6.42-3.41,1.25Z"/>
    <path class="cls-2" d="m498.98,136.06h-5.71v-29.54h5.71v29.54Z"/>
    <path class="cls-2" d="m515.51,136.06h-5.71v-29.54h5.71v29.54Z"/>
    <path class="cls-2" d="m540.44,114.66c1.52.68,2.78,1.76,3.77,3.23.89,1.3,1.47,2.8,1.74,4.52.15,1,.22,2.45.19,4.33h-15.91c.09,2.19.85,3.73,2.28,4.61.87.55,1.92.82,3.15.82,1.3,0,2.36-.33,3.17-1,.44-.36.84-.86,1.18-1.5h5.83c-.15,1.3-.86,2.61-2.12,3.95-1.96,2.12-4.7,3.19-8.22,3.19-2.91,0-5.47-.9-7.69-2.69-2.22-1.79-3.33-4.71-3.33-8.75,0-3.78,1-6.69,3.01-8.7,2.01-2.02,4.61-3.03,7.81-3.03,1.9,0,3.61.34,5.14,1.02Zm-8.54,4.93c-.81.83-1.31,1.96-1.52,3.38h9.84c-.1-1.52-.61-2.67-1.52-3.45-.91-.79-2.04-1.18-3.39-1.18-1.47,0-2.6.42-3.41,1.25Z"/>
    <path class="cls-2" d="m571.78,115.47c1.43,1.18,2.15,3.14,2.15,5.88v14.71h-5.85v-13.29c0-1.15-.15-2.03-.46-2.65-.56-1.12-1.62-1.68-3.18-1.68-1.92,0-3.24.82-3.96,2.46-.37.87-.56,1.98-.56,3.33v11.82h-5.71v-21.8h5.53v3.19c.73-1.12,1.42-1.93,2.08-2.42,1.17-.88,2.65-1.32,4.45-1.32,2.25,0,4.09.59,5.52,1.77Z"/>
    <path class="cls-2" d="m597.43,122.06c-.11-.81-.38-1.55-.82-2.2-.64-.88-1.64-1.32-2.99-1.32-1.93,0-3.25.96-3.96,2.87-.38,1.01-.56,2.36-.56,4.04s.19,2.89.56,3.86c.68,1.82,1.97,2.73,3.86,2.73,1.34,0,2.29-.36,2.85-1.08.56-.72.9-1.66,1.02-2.81h5.83c-.13,1.74-.76,3.38-1.89,4.93-1.79,2.5-4.45,3.75-7.96,3.75s-6.11-1.04-7.76-3.13-2.49-4.79-2.49-8.11c0-3.75.92-6.66,2.75-8.75,1.83-2.08,4.36-3.13,7.58-3.13,2.74,0,4.98.61,6.73,1.84,1.75,1.23,2.78,3.4,3.1,6.51h-5.85Z"/>
    <path class="cls-2" d="m626.56,114.66c1.52.68,2.78,1.76,3.77,3.23.89,1.3,1.47,2.8,1.74,4.52.15,1,.22,2.45.19,4.33h-15.91c.09,2.19.85,3.73,2.28,4.61.87.55,1.92.82,3.15.82,1.3,0,2.36-.33,3.17-1,.44-.36.84-.86,1.18-1.5h5.83c-.15,1.3-.86,2.61-2.12,3.95-1.96,2.12-4.7,3.19-8.22,3.19-2.91,0-5.47-.9-7.69-2.69-2.22-1.79-3.33-4.71-3.33-8.75,0-3.78,1-6.69,3.01-8.7,2.01-2.02,4.61-3.03,7.81-3.03,1.9,0,3.61.34,5.14,1.02Zm-8.54,4.93c-.81.83-1.31,1.96-1.52,3.38h9.84c-.1-1.52-.61-2.67-1.52-3.45-.91-.79-2.04-1.18-3.39-1.18-1.47,0-2.6.42-3.41,1.25Z"/>
    <path class="cls-2" d="m662.68,111.62h-5.79v-5.27h5.79v5.27Zm-5.79,2.6h5.79v21.84h-5.79v-21.84Z"/>
    <path class="cls-2" d="m690.96,115.47c1.43,1.18,2.15,3.14,2.15,5.88v14.71h-5.85v-13.29c0-1.15-.15-2.03-.46-2.65-.56-1.12-1.62-1.68-3.18-1.68-1.92,0-3.24.82-3.96,2.46-.37.87-.56,1.98-.56,3.33v11.82h-5.71v-21.8h5.53v3.19c.73-1.12,1.42-1.93,2.08-2.42,1.17-.88,2.65-1.32,4.45-1.32,2.25,0,4.09.59,5.52,1.77Z"/>
    <path class="cls-2" d="m742.06,111.76h-15.31v6.27h14.03v5.13h-14.03v7.6h16.03v5.31h-22.06v-29.54h21.34v5.23Z"/>
    <path class="cls-2" d="m766.04,114.22h6.13l-7.89,21.84h-6.02l-7.83-21.84h6.41l4.55,16.11,4.65-16.11Z"/>
    <path class="cls-2" d="m794.77,114.66c1.52.68,2.78,1.76,3.77,3.23.89,1.3,1.47,2.8,1.74,4.52.15,1,.22,2.45.19,4.33h-15.91c.09,2.19.85,3.73,2.28,4.61.87.55,1.92.82,3.15.82,1.3,0,2.36-.33,3.17-1,.44-.36.84-.86,1.18-1.5h5.83c-.15,1.3-.86,2.61-2.12,3.95-1.96,2.12-4.7,3.19-8.22,3.19-2.91,0-5.47-.9-7.69-2.69-2.22-1.79-3.33-4.71-3.33-8.75,0-3.78,1-6.69,3.01-8.7,2.01-2.02,4.61-3.03,7.81-3.03,1.9,0,3.61.34,5.14,1.02Zm-8.54,4.93c-.81.83-1.31,1.96-1.52,3.38h9.84c-.1-1.52-.61-2.67-1.52-3.45-.91-.79-2.04-1.18-3.39-1.18-1.47,0-2.6.42-3.41,1.25Z"/>
    <path class="cls-2" d="m820.63,113.71c.07,0,.24.02.49.03v5.85c-.36-.04-.68-.07-.96-.08-.28-.01-.51-.02-.68-.02-2.3,0-3.84.75-4.63,2.24-.44.84-.66,2.14-.66,3.89v10.44h-5.75v-21.84h5.45v3.81c.88-1.46,1.65-2.45,2.3-2.99,1.07-.9,2.46-1.34,4.17-1.34.11,0,.2,0,.27.01Z"/>
    <path class="cls-2" d="m830.46,140.25l.72.04c.56.03,1.1,0,1.6-.06.51-.07.94-.22,1.28-.46.33-.23.64-.7.93-1.42.29-.72.41-1.16.37-1.32l-8.03-22.81h6.35l4.77,16.11,4.51-16.11h6.07l-7.49,21.48c-1.45,4.14-2.59,6.71-3.43,7.71-.84,1-2.53,1.49-5.06,1.49-.51,0-.92,0-1.22-.01-.31,0-.77-.03-1.38-.07v-4.57Z"/>
    <path class="cls-2" d="m896.58,109.67c.9,1.26,1.36,2.76,1.36,4.51s-.46,3.25-1.37,4.35c-.51.61-1.26,1.18-2.25,1.68,1.51.55,2.65,1.42,3.41,2.6.77,1.19,1.15,2.63,1.15,4.33s-.44,3.32-1.32,4.71c-.56.92-1.25,1.7-2.09,2.32-.94.72-2.06,1.22-3.34,1.48-1.28.27-2.67.4-4.17.4h-13.31v-29.54h14.28c3.6.05,6.15,1.1,7.66,3.15Zm-16.04,1.98v6.51h7.18c1.28,0,2.32-.24,3.12-.73.8-.49,1.2-1.35,1.2-2.59,0-1.38-.53-2.28-1.59-2.73-.91-.31-2.08-.46-3.49-.46h-6.43Zm0,11.4v7.88h7.17c1.28,0,2.28-.17,2.99-.52,1.29-.64,1.94-1.87,1.94-3.69,0-1.54-.63-2.59-1.88-3.17-.7-.32-1.68-.49-2.95-.5h-7.27Z"/>
    <path class="cls-2" d="m909.72,140.25l.72.04c.56.03,1.1,0,1.6-.06.51-.07.94-.22,1.28-.46.33-.23.64-.7.93-1.42.29-.72.41-1.16.37-1.32l-8.03-22.81h6.35l4.77,16.11,4.51-16.11h6.07l-7.49,21.48c-1.45,4.14-2.59,6.71-3.43,7.71-.84,1-2.53,1.49-5.06,1.49-.51,0-.92,0-1.22-.01-.31,0-.77-.03-1.38-.07v-4.57Z"/>
    <path class="cls-2" d="m934.57,118.49v-4.07h3.05v-6.09h5.65v6.09h3.55v4.07h-3.55v11.54c0,.9.11,1.45.34,1.67.23.22.92.33,2.08.33.17,0,.36,0,.55-.01.19,0,.38-.02.57-.03v4.27l-2.71.1c-2.7.09-4.54-.37-5.53-1.4-.64-.65-.96-1.66-.96-3.03v-13.45h-3.05Z"/>
    <path class="cls-2" d="m969.84,114.66c1.52.68,2.78,1.76,3.77,3.23.89,1.3,1.47,2.8,1.74,4.52.15,1,.22,2.45.19,4.33h-15.91c.09,2.19.85,3.73,2.28,4.61.87.55,1.92.82,3.15.82,1.3,0,2.36-.33,3.17-1,.44-.36.84-.86,1.18-1.5h5.83c-.15,1.3-.86,2.61-2.12,3.95-1.96,2.12-4.7,3.19-8.22,3.19-2.91,0-5.47-.9-7.69-2.69-2.22-1.79-3.33-4.71-3.33-8.75,0-3.78,1-6.69,3.01-8.7,2.01-2.02,4.61-3.03,7.81-3.03,1.9,0,3.61.34,5.14,1.02Zm-8.54,4.93c-.81.83-1.31,1.96-1.52,3.38h9.84c-.1-1.52-.61-2.67-1.52-3.45-.91-.79-2.04-1.18-3.39-1.18-1.47,0-2.6.42-3.41,1.25Z"/>
  </g>
  <g>
    <path class="cls-5" d="m179.62,83.76v-8.16l41.64-59.4h-38.52V1.44h64.08v8.28l-41.52,59.28h42.6v14.76h-68.28Z"/>
    <path class="cls-5" d="m258.94,83.76V1.44h64.68v14.76h-47.28v18.12h42v14.76h-42v19.92h48v14.76h-65.4Z"/>
    <path class="cls-5" d="m338.98,83.76V1.44h16.92l31.68,44.76c.48.72,1.1,1.72,1.86,3,.76,1.28,1.74,2.96,2.94,5.04l.6-.36c-.16-1.92-.26-3.46-.3-4.62-.04-1.16-.06-1.94-.06-2.34V1.44h16.92v82.32h-16.92l-31.8-45.12c-1.2-1.68-2.76-4.32-4.68-7.92l-.6.36c.08,1.84.16,3.32.24,4.44.08,1.12.12,2.04.12,2.76v45.48h-16.92Z"/>
    <path class="cls-5" d="m445.54,83.76V16.44h-25.44V1.44h68.28v15h-25.44v67.32h-17.4Z"/>
    <path class="cls-5" d="m498.93,83.76V1.44h43.68c9.36,0,16.32,2.3,20.88,6.9,4.56,4.6,6.84,10.9,6.84,18.9,0,5.52-1.16,10.24-3.48,14.16-2.32,3.92-5.96,6.88-10.92,8.88l16.8,33.48h-18.84l-14.52-30.72h-23.04v30.72h-17.4Zm17.4-45.24h24.72c3.76,0,6.64-1.02,8.64-3.06,2-2.04,3-4.78,3-8.22s-1-6.14-3-8.1c-2-1.96-4.88-2.94-8.64-2.94h-24.72v22.32Z"/>
    <path class="cls-5" d="m577.77,83.76L609.93,1.44h21.84l32.16,82.32h-18.96l-5.88-15.72h-37.44l-5.88,15.72h-18Zm29.28-30.24h26.52l-7.8-20.88c-.4-1.04-.88-2.44-1.44-4.2-.56-1.76-1.12-3.56-1.68-5.4-.56-1.84-1.24-4.04-2.04-6.6h-.6c-.8,2.56-1.48,4.76-2.04,6.6-.56,1.84-1.12,3.64-1.68,5.4-.56,1.76-1.04,3.16-1.44,4.2l-7.8,20.88Z"/>
    <path class="cls-6" d="m683.25,83.76V16.44h-25.44V1.44h68.28v15h-25.44v67.32h-17.4Z"/>
    <path class="cls-6" d="m736.65,83.76V1.44h64.68v14.76h-47.28v18.12h42v14.76h-42v19.92h48v14.76h-65.4Z"/>
    <path class="cls-6" d="m853.53,85.2c-8.24,0-15.34-1.46-21.3-4.38-5.96-2.92-10.54-7.5-13.74-13.74-3.2-6.24-4.8-14.4-4.8-24.48,0-14.48,3.56-25.2,10.68-32.16,7.12-6.96,16.84-10.44,29.16-10.44,6.8,0,12.98,1.16,18.54,3.48,5.56,2.32,10,5.84,13.32,10.56,3.32,4.72,4.98,10.72,4.98,18h-17.88c0-5.52-1.76-9.78-5.28-12.78-3.52-3-7.96-4.5-13.32-4.5-7.68,0-13.32,2.3-16.92,6.9-3.6,4.6-5.4,10.98-5.4,19.14v3.6c0,8.48,1.8,14.94,5.4,19.38,3.6,4.44,9.24,6.66,16.92,6.66,5.76,0,10.4-1.5,13.92-4.5,3.52-3,5.28-7.22,5.28-12.66h17.28c0,7.2-1.62,13.16-4.86,17.88-3.24,4.72-7.66,8.24-13.26,10.56-5.6,2.32-11.84,3.48-18.72,3.48Z"/>
    <path class="cls-6" d="m903.33,83.76V1.44h17.4v32.64h35.76V1.44h17.4v82.32h-17.4v-34.68h-35.76v34.68h-17.4Z"/>
  </g>
  <polygon class="cls-6" points="65.29 2.78 36.01 44.97 96.73 44.97 65.29 2.78"/>
  <path class="cls-3" d="m0,55h80.61s-52.13,40.93-52.4,39.32S0,55,0,55Z"/>
  <polygon class="cls-4" points="102.91 55 51.05 94.32 131.93 94.32 102.91 55"/>
  <polygon class="cls-1" points="36.01 104.35 96.73 104.35 66.37 146.53 36.01 104.35"/>
</svg>